<?xml version="1.0" encoding="utf-8"?>
<svg viewBox="0 0 500 437" xmlns="http://www.w3.org/2000/svg">
  <g transform="matrix(0.815585, 0, 0, 0.815585, 41.210239, 9.710236)" style="">
    <path fill="#264de4" d="M 71.357 460.819 L 30.272 0 L 481.728 0 L 440.599 460.746 L 255.724 512 Z"/>
    <path fill="#2965f1" d="M 405.388 431.408 L 440.536 37.678 L 256 37.678 L 256 472.824 Z"/>
    <path fill="#ebebeb" d="M 124.46 208.59 L 129.525 265.107 L 256 265.107 L 256 208.59 Z M 119.419 150.715 L 256 150.715 L 256 94.197 L 114.281 94.197 Z M 256 355.372 L 255.752 355.438 L 192.808 338.442 L 188.785 293.366 L 132.049 293.366 L 139.968 382.107 L 255.74 414.247 L 256 414.174 Z"/>
    <path fill="#fff" d="M 255.805 208.59 L 255.805 265.107 L 325.4 265.107 L 318.84 338.406 L 255.805 355.419 L 255.805 414.219 L 371.669 382.107 L 372.519 372.558 L 385.799 223.766 L 387.179 208.59 L 397.382 94.197 L 255.805 94.197 L 255.805 150.715 L 335.444 150.715 L 330.3 208.59 Z"/>
  </g>
</svg>