<?xml version="1.0" encoding="utf-8"?>
<svg viewBox="0 0 500 437" xmlns="http://www.w3.org/2000/svg" xmlns:bx="https://boxy-svg.com">
  <g transform="matrix(15.136147, 0, 0, 15.136147, 3.535044, -2.059172)" style="">
    <path d="M 284 425.209 L 295.943 432.105 L 295.943 445.895 L 284 452.791 L 272.057 445.896 L 272.057 432.105 Z" style="fill: rgb(106, 106, 106);" transform="matrix(0.999964, 0.008503, -0.008503, 0.999964, -263.973743, -426.827357)" bx:shape="n-gon 284 439 13.791 13.791 6 0 1@43325c1c"/>
    <path d="M 25.93 19.878 C 25.228 20.057 24.794 19.886 24.405 19.301 L 21.635 15.469 L 21.234 14.938 L 18 19.314 C 17.631 19.84 17.242 20.069 16.553 19.883 L 20.694 14.323 L 16.838 9.301 C 17.502 9.172 17.96 9.237 18.367 9.831 L 21.239 13.711 L 24.133 9.852 C 24.504 9.326 24.903 9.126 25.569 9.32 L 24.073 11.302 L 22.048 13.94 C 21.806 14.241 21.84 14.447 22.061 14.739 L 25.93 19.878 Z M 6.642 14.23 L 6.981 12.564 C 7.903 9.266 11.684 7.895 14.29 9.933 C 15.814 11.132 16.192 12.827 16.117 14.726 L 7.53 14.726 C 7.4 18.144 9.861 20.208 12.997 19.155 C 14.098 18.785 14.746 17.924 15.07 16.846 C 15.235 16.306 15.508 16.222 16.015 16.375 C 15.756 17.724 15.171 18.85 13.935 19.555 C 12.088 20.609 9.452 20.269 8.066 18.802 C 7.24 17.952 6.899 16.873 6.745 15.721 C 6.721 15.53 6.673 15.349 6.637 15.166 C 6.64 14.854 6.642 14.542 6.642 14.231 Z M 7.545 14.001 L 15.306 14.001 C 15.255 11.529 13.715 9.773 11.612 9.759 C 9.303 9.74 7.645 11.454 7.545 14.001 Z" style="stroke: rgb(255, 255, 255); fill: rgb(255, 255, 255); stroke-width: 0.2px;"/>
  </g>
</svg>