<?xml version="1.0" encoding="utf-8" standalone="yes"?><svg xmlns="http://www.w3.org/2000/svg" xmlns:bx="https://boxy-svg.com" viewBox="0 0 500 437" style="zoom: 1;"><rect stroke="none" x="-193.714462px" height="669.982178px" y="-116.807922px" id="rect1" stroke-width="3px" width="924.183655px" fill="#7192e3" transform=""></rect><defs><linearGradient gradientUnits="userSpaceOnUse" x1="253.521" y1="86.288" x2="253.521" y2="428.848" id="gradient-1" gradientTransform="matrix(1.292634, 0, 0, 1.292634, -83.869446, -75.553314)"><stop offset="0" style="stop-color: rgb(164, 66, 0);"></stop><stop offset="1" style="stop-color: rgb(16, 24, 66);"></stop></linearGradient><linearGradient gradientUnits="userSpaceOnUse" x1="423.002" y1="438.924" x2="423.002" y2="529.394" id="gradient-0" gradientTransform="matrix(1.240015, 0.528074, -0.556674, 1.307157, 295.87085, -206.946503)"><stop offset="0" style="stop-color: rgb(164, 66, 0);"></stop><stop offset="1" style="stop-color: rgb(16, 24, 66);"></stop></linearGradient><linearGradient gradientUnits="userSpaceOnUse" x1="423.002" y1="438.924" x2="423.002" y2="529.394" id="gradient-2" gradientTransform="matrix(1.175259, -0.659744, 0.642067, 1.143755, -208.842896, 368.62265)"><stop offset="0" style="stop-color: rgb(164, 66, 0);"></stop><stop offset="1" style="stop-color: rgb(16, 24, 66);"></stop></linearGradient></defs><g transform="matrix(0.884018, 0, 0, 0.86952, 28.995512, 1.171999)" style=""><circle style="fill: rgb(212, 242, 210);" cx="250" cy="250" r="185.928"></circle><circle style="fill: rgb(255, 255, 255);" cx="250" cy="250" r="157.69"></circle><g style="" transform="matrix(0.562442, 0, 0, 0.563576, 112.854698, 104.942284)"><circle style="fill: url(#gradient-1);" cx="243.839" cy="257.388" r="221.401"></circle><path style="paint-order: fill markers; stroke-width: 2px; fill: rgb(255, 255, 255);" d="M 246.129 365.124 C 296.924 365.438 333.578 356.207 358.629 345.395 C 383.682 334.584 398.414 314.484 402.797 308.46 C 416.675 289.402 426.984 265.092 430.91 232.756 C 434.836 200.423 431.099 167.767 414.32 147.419 C 402.841 133.5 390.92 123.99 377.416 119.507 C 363.916 115.026 348.834 115.571 331.041 121.765 C 306.719 130.231 296.056 149.525 286.191 166.398 C 276.325 183.267 267.257 197.714 245.735 196.405 C 224.211 197.556 215.143 183.109 205.277 166.238 C 195.411 149.365 184.75 130.072 160.429 121.608 C 142.633 115.414 127.553 114.868 114.051 119.347 C 100.549 123.83 88.626 133.34 77.149 147.262 C 60.37 167.609 56.632 200.265 60.558 232.598 C 64.484 264.933 74.795 289.243 88.671 308.301 C 93.056 314.325 107.785 334.425 132.84 345.237 C 157.892 356.049 194.545 365.279 245.339 364.965" transform="matrix(-1, 0, 0, -1, 491.468155, 481.537521)"></path><path d="M 548.244 591.571 H 591.983 V 627.555 H 631.08 V 677.521 H 591.983 V 713.505 H 548.244 V 677.521 H 509.146 V 627.555 H 548.244 Z" style="fill: url(#gradient-0);" transform="matrix(0.999901, -0.014083, 0.014083, 0.999901, -430.582672, -394.875427)" bx:shape="cross 509.146 591.571 121.934 121.934 49.966 43.739 0.5 1@ee8c4153"></path><path d="M 548.244 591.571 H 591.983 V 627.555 H 631.08 V 677.521 H 591.983 V 713.505 H 548.244 V 677.521 H 509.146 V 627.555 H 548.244 Z" style="fill: url(#gradient-2);" transform="matrix(0.999901, -0.014083, 0.014083, 0.999901, -238.835098, -399.718903)" bx:shape="cross 509.146 591.571 121.934 121.934 49.966 43.739 0.5 1@ee8c4153"></path></g></g></svg>