<?xml version="1.0" encoding="utf-8" standalone="yes"?><svg xmlns="http://www.w3.org/2000/svg" viewBox="0 0 500 437" style="zoom: 1;"><rect stroke="#000000" height="465.042786px" x="-35.880573px" y="-0.778995px" id="rect1" stroke-width="0px" width="590.45636px" fill="#c7778c" transform=""></rect><g transform="matrix(0.884018, 0, 0, 0.86952, 28.995512, 1.171999)" style=""><circle style="fill: rgb(119, 125, 167);" cx="250" cy="250" r="185.928"></circle><circle style="fill: rgb(255, 255, 255);" cx="250" cy="250" r="157.69"></circle><g><path d="M250.465,190.044 C218.533,134.335 128.742,150.598 128.742,220.405 C128.742,268.472 185.252,317.622 250.465,383.427 C315.687,317.622 372.187,268.472 372.187,220.405 C372.187,150.36 282.163,134.747 250.465,190.044 " style="stroke: rgb(255, 255, 255); stroke-width: 0px; fill: rgb(251, 104, 136);"></path><path d="M 250.465 213.408 C 227.865 173.98 164.316 185.49 164.316 234.896 C 164.316 268.915 204.311 303.701 250.465 350.274 C 296.626 303.701 336.613 268.915 336.613 234.896 C 336.613 185.322 272.899 174.272 250.465 213.408 Z" style="stroke: rgb(255, 255, 255); stroke-width: 0px; fill: rgb(162, 232, 217);"></path><path d="M 250.465 230.764 C 234.797 203.431 190.742 211.41 190.742 245.661 C 190.742 269.244 218.468 293.359 250.465 325.646 C 282.466 293.359 310.186 269.244 310.186 245.661 C 310.186 211.293 266.017 203.633 250.465 230.764 Z" style="stroke: rgb(255, 255, 255); stroke-width: 0px; fill: rgb(255, 235, 123);"></path></g></g></svg>