<?xml version="1.0" encoding="utf-8"?>
<svg viewBox="0 0 500 437" xmlns="http://www.w3.org/2000/svg">
  <g transform="matrix(0.803466, 0, 0, 0.803466, 44.714417, 12.812683)" style="">
    <path fill="#E34F26" d="M 71 460 L 30 0 L 481 0 L 440 460 L 255 512"/>
    <path fill="#EF652A" d="M 256 472 L 405 431 L 440 37 L 256 37"/>
    <path fill="#EBEBEB" d="M 256 208 L 181 208 L 176 150 L 256 150 L 256 94 L 255 94 L 114 94 L 115 109 L 129 265 L 256 265 Z M 256 355 L 255 355 L 192 338 L 188 293 L 158 293 L 132 293 L 139 382 L 255 414 L 256 414 Z"/>
    <path fill="#FFF" d="M 255 208 L 255 265 L 325 265 L 318 338 L 255 355 L 255 414 L 371 382 L 372 372 L 385 223 L 387 208 L 371 208 Z M 255 94 L 255 129 L 255 150 L 255 150 L 392 150 L 392 150 L 392 150 L 393 138 L 396 109 L 397 94 Z"/>
  </g>
</svg>