<?xml version="1.0" encoding="utf-8"?>
<svg viewBox="0 0 500 437" xmlns="http://www.w3.org/2000/svg" xmlns:bx="https://boxy-svg.com">
  <rect style="fill: rgb(39, 24, 126);" width="500" height="437.104" rx="25" ry="25" y="0" x="0"/>
  <g transform="matrix(0.884018, 0, 0, 0.86952, 28.995512, 1.171999)" style="">
    <circle style="fill: rgb(249, 112, 104);" cx="250" cy="250" r="185.928"/>
    <circle style="fill: rgb(255, 255, 255);" cx="250" cy="250" r="157.69"/>
    <g transform="matrix(0.54777, 0, 0, 0.556903, 122.093224, 135.267075)" style="">
      <g>
        <path d="M 292 324 m -16.286 0 a 16.286 16.286 0 1 0 32.572 0 a 16.286 16.286 0 1 0 -32.572 0 Z M 292 324 m -9.772 0 a 9.772 9.772 0 0 1 19.544 0 a 9.772 9.772 0 0 1 -19.544 0 Z" style="fill: rgb(216, 216, 216); stroke: rgb(0, 0, 0); stroke-width: 4px;" transform="matrix(-0.274721, 0.961524, -0.961524, -0.274721, 782.924073, 41.067714)" bx:shape="ring 292 324 9.772 9.772 16.286 16.286 1@466db2ef"/>
        <circle style="fill: rgba(149, 245, 232, 0.65); stroke: rgb(0, 0, 0); stroke-width: 5px;" cx="44.107" cy="110.907" r="30.175"/>
        <path d="M 177.537 564.496 L 210.952 654.398 L 144.121 654.398 L 177.537 564.496 Z" style="fill: rgb(216, 216, 216); stroke-width: 8px; stroke: rgb(0, 0, 0);" transform="matrix(-0.993224, -0.116217, 0.116217, -0.993224, 321.334564, 960.067871)" bx:shape="triangle 144.121 564.496 66.831 89.902 0.5 0 1@f203ab3c"/>
        <g transform="matrix(1.019714, -0.372437, 0.372437, 1.019714, -132.940353, 107.782402)" style="">
          <rect x="265.166" y="26.323" width="22.996" height="67.664" style="stroke: rgb(23, 23, 23); stroke-width: 12px; fill: rgb(155, 71, 71);" rx="10.71" ry="10.71" transform="matrix(0.887587, 0.46064, -0.46064, 0.887587, 133.408356, -114.490822)"/>
          <rect x="258.01" y="78.657" width="37.308" height="123.739" style="stroke: rgb(23, 23, 23); stroke-width: 12px; fill: rgb(216, 216, 216);" transform="matrix(0.887587, 0.46064, -0.46064, 0.887587, 133.408356, -114.490822)"/>
          <rect x="236.695" y="78.657" width="79.938" height="26.281" style="stroke: rgb(23, 23, 23); stroke-width: 12px; fill: rgb(123, 194, 177);" transform="matrix(0.887587, 0.46064, -0.46064, 0.887587, 133.408356, -114.490822)"/>
        </g>
        <path style="stroke: rgb(0, 0, 0); stroke-width: 12px; fill: rgb(145, 145, 145);" d="M 380.451 226.642 C 384.291 228.536 348.541 277.584 315.873 304.618 C 292.382 324.058 272.273 328.683 263.774 330.604 C 254.063 336.339 159.382 336.521 146.412 333.228 C 136.871 334.519 71.96 251.654 73.177 233.744 C 71.96 215.834 136.871 132.969 146.412 134.26 C 159.382 130.967 250.39 132.698 263.774 136.884 C 269.624 139.031 296.585 145.563 324.376 169.053 C 356.212 195.962 381.746 222.201 380.451 226.642 Z"/>
        <g transform="matrix(1, 0, 0, 1, -8.591995, -12.605453)">
          <path d="M 161.694 218.313 C 161.694 227.77 154.027 235.437 144.57 235.437 C 135.113 235.437 127.446 227.77 127.446 218.313 C 127.446 208.856 135.113 201.189 144.57 201.189 C 154.027 201.189 161.694 208.856 161.694 218.313 Z" style="stroke: rgb(37, 39, 30);"/>
          <path stroke="rgb(255,0,0)" d="M 147.816 206.92 C 148.568 207.023 150.064 207.785 151.156 208.67 C 152.459 209.725 154.346 211.762 154.973 213.123 C 155.445 214.147 155.417 215.287 155.291 215.986 C 155.2 216.491 155.086 216.82 154.655 217.099 C 154.019 217.512 152.439 218.02 151.315 217.735 C 150.004 217.403 150.59 214.359 149.556 213.112 C 148.523 211.867 145.097 211.571 145.112 210.26 C 145.125 209.122 146.316 207.727 146.862 207.238 C 147.194 206.941 147.373 206.859 147.816 206.92 Z M 152.587 223.554 C 153.814 223.329 155.265 223.528 155.927 224.19 C 156.59 224.853 156.802 226.523 156.564 227.53 C 156.325 228.538 155.559 229.441 154.496 230.234 C 153.114 231.265 150.533 232.357 148.452 232.779 C 146.396 233.195 144.063 233.372 142.09 232.779 C 140.081 232.175 137.294 230.073 136.524 229.121 C 136.122 228.624 136.11 228.376 136.206 227.848 C 136.347 227.068 137.293 225.336 137.955 224.826 C 138.443 224.451 138.899 224.388 139.546 224.508 C 140.472 224.68 141.754 226.092 143.045 226.417 C 144.394 226.757 145.996 226.822 147.498 226.417 C 149.172 225.966 151.065 223.834 152.587 223.554 Z" style="stroke: rgb(129, 151, 57); fill: rgb(255, 255, 255); stroke-width: 0px;"/>
        </g>
        <path style="stroke: rgb(0, 0, 0); stroke-linecap: round; stroke-width: 12px; fill: rgba(168, 164, 164, 0.42);" d="M 216.034 218.131 C 216.034 218.131 237.213 207.025 255.223 216.529 C 267.401 222.955 259.449 231.032 263.609 236.315 C 267.433 241.169 289.289 244.48 290.651 252.826 C 292.537 264.378 275.141 259.695 263.299 268.062 C 246.708 279.784 251.597 284.138 242.515 285.39 C 229.374 287.201 209.665 276.221 207.246 266.954"/>
        <path d="M 363.494 294.221 C 365.123 289.661 367.505 289.226 370.639 292.917 L 383.627 308.206 C 386.762 311.897 385.948 314.177 381.184 315.047 L 374.321 316.3 C 374.813 318.385 375.516 320.351 376.846 321.262 C 380.54 323.789 390.422 323.212 394.664 321.96 C 397.811 321.031 399.377 319.524 401.301 316.72 C 403.938 312.88 406.555 305.147 407.59 299.252 C 408.6 293.498 408.109 287.248 407.59 281.783 C 407.107 276.698 406.215 269.837 404.795 267.459 C 404.012 266.148 402.58 266.501 402 265.713 C 401.451 264.966 401.11 264.115 401.301 262.918 C 401.594 261.091 416.682 270.413 417.372 276.892 C 418.047 283.221 418.198 289.186 417.372 295.758 C 416.478 302.878 414.668 312.228 411.782 318.117 C 409.359 323.063 405.689 326.852 402.35 329.646 C 399.467 332.059 397.005 333.643 393.266 334.537 C 388.725 335.623 380.967 335.71 376.497 334.537 C 372.834 333.577 369.688 331.977 367.762 329.297 C 365.81 326.581 364.721 321.417 364.918 318.017 L 361.449 318.65 C 356.685 319.52 355.118 317.674 356.746 313.113 L 363.494 294.221 Z" style="fill: rgb(216, 216, 216); stroke: rgb(0, 0, 0); stroke-width: 4px;"/>
        <path d="M 430.088 296.496 C 431.717 301.056 434.099 301.491 437.233 297.8 L 450.221 282.511 C 453.356 278.82 452.542 276.54 447.778 275.67 L 440.915 274.417 C 441.407 272.332 442.11 270.366 443.44 269.455 C 447.134 266.928 457.016 267.505 461.258 268.757 C 464.405 269.686 465.971 271.193 467.895 273.997 C 470.532 277.837 473.149 285.57 474.184 291.465 C 475.194 297.219 474.703 303.469 474.184 308.934 C 473.701 314.019 472.809 320.88 471.389 323.258 C 470.606 324.569 469.174 324.216 468.594 325.004 C 468.045 325.751 467.704 326.602 467.895 327.799 C 468.188 329.626 483.276 320.304 483.966 313.825 C 484.641 307.496 484.792 301.531 483.966 294.959 C 483.072 287.839 481.262 278.489 478.376 272.6 C 475.953 267.654 472.283 263.865 468.944 261.071 C 466.061 258.658 463.599 257.074 459.86 256.18 C 455.319 255.094 447.561 255.007 443.091 256.18 C 439.428 257.14 436.282 258.74 434.356 261.42 C 432.404 264.136 431.315 269.3 431.512 272.7 L 428.043 272.067 C 423.279 271.197 421.712 273.043 423.34 277.604 L 430.088 296.496 Z" style="fill: rgb(216, 216, 216); stroke: rgb(0, 0, 0); stroke-width: 4px;" transform="matrix(-0.957762, 0.287563, -0.287563, -0.957762, 971.964834, 440.598927)"/>
        <path d="M 292 324 m -21.965 0 a 21.965 21.965 0 1 0 43.93 0 a 21.965 21.965 0 1 0 -43.93 0 Z M 292 324 m -13.18 0 a 13.18 13.18 0 0 1 26.36 0 a 13.18 13.18 0 0 1 -26.36 0 Z" style="fill: rgb(216, 216, 216); stroke: rgb(0, 0, 0); stroke-width: 4px;" transform="matrix(-0.274721, 0.961524, -0.961524, -0.274721, 806.153382, 58.770804)" bx:shape="ring 292 324 13.18 13.18 21.965 21.965 1@0aac886d"/>
        <path stroke="rgb(255,0,0)" stroke-width="0" opacity="0.9568627450980393" d="M 417.28 262.832 C 418.681 262.364 421.816 263.053 422.953 264.379 C 424.193 265.823 424.115 269.763 423.985 271.599 C 423.89 272.93 423.175 272.587 422.953 274.693 C 422.33 280.621 421.886 304.698 423.985 318.015 C 425.924 330.321 434.635 346.686 434.3 352.054 C 434.154 354.388 432.888 355.293 431.721 355.664 C 430.507 356.049 428.688 356.019 427.079 354.117 C 423.588 349.988 417.938 334.858 415.733 322.141 C 413.044 306.635 413.059 273.819 414.702 266.442 C 415.299 263.76 416.029 263.25 417.28 262.832 Z" style="fill-opacity: 1; fill-rule: nonzero; stroke: rgb(0, 0, 0); stroke-dasharray: none; stroke-dashoffset: 0px; stroke-linecap: butt; stroke-linejoin: miter; stroke-miterlimit: 4; stroke-opacity: 1; stroke-width: 4px; paint-order: normal; vector-effect: none; opacity: 1; mix-blend-mode: normal; isolation: auto; fill: rgb(123, 194, 177);"/>
        <path style="fill: rgba(255, 255, 255, 0.39);" transform="matrix(0.847424, 0.530916, -0.530916, 0.847424, 7.600805, -254.501501)" d="M 238.048 279.007 A 15.03 15.03 0 0 1 238.048 308.993 A 38.852 38.852 0 0 0 238.048 279.007 Z" bx:shape="crescent 237 294 15.03 172 0.635 1@a15874fd"/>
        <circle style="fill: rgba(149, 245, 232, 0.65); stroke: rgb(0, 0, 0); stroke-width: 5px;" cx="77.639" cy="155.651" r="14.501"/>
        <path style="fill: rgba(255, 255, 255, 0.39);" transform="matrix(0.847424, 0.530916, -0.530916, 0.847424, 39.198313, -216.564001)" d="M 237.415 288.07 A 5.944 5.944 0 0 1 237.415 299.93 A 15.365 15.365 0 0 0 237.415 288.07 Z" bx:shape="crescent 237 294 5.944 172 0.635 1@6b0bc387"/>
        <path style="fill: rgb(216, 216, 216); stroke: rgb(0, 0, 0);" d="M 153.102 70.907"/>
        <path style="stroke: rgb(0, 0, 0); fill: none; stroke-linecap: round; stroke-miterlimit: 1; stroke-opacity: 0.18; stroke-width: 7px;" d="M 74.569 231.006 C 114.928 228.722 140.92 221.522 177.416 229.495"/>
        <path style="stroke: rgb(0, 0, 0); fill: none; stroke-linecap: round; stroke-miterlimit: 1; stroke-opacity: 0.18; stroke-width: 7px;" d="M 145.897 329.226 C 141.512 324.841 186.964 262.059 187.59 262.685"/>
        <path style="stroke: rgb(0, 0, 0); fill: none; stroke-linecap: round; stroke-miterlimit: 1; stroke-opacity: 0.18; stroke-width: 7px;" d="M 144.584 141.574 C 152.367 141.574 188.506 201.189 187.572 201.189"/>
        <path style="stroke: rgb(0, 0, 0); fill: none; stroke-linecap: round; stroke-miterlimit: 1; stroke-opacity: 0.18; stroke-width: 7px;" d="M 372.917 225.558 C 371.612 220.338 275.063 223.143 278.434 229.495"/>
      </g>
    </g>
  </g>
</svg>