<?xml version="1.0" encoding="utf-8"?>
<svg viewBox="0 0 500 500" xmlns="http://www.w3.org/2000/svg" xmlns:xlink="http://www.w3.org/1999/xlink">
  <defs>
    <path id="path-0" d="M 206.584 186.663 L 223.158 196.862 C 226.558 198.562 229.958 200.262 233.357 201.962" style="fill: none;"/>
    <path id="path-1" d="M 206.584 186.663 L 223.158 196.862 C 226.558 198.562 229.958 200.262 233.357 201.962" style="fill: none;"/>
    <path id="path-2" d="M 206.584 186.663 L 223.158 196.862 C 226.558 198.562 229.958 200.262 233.357 201.962" style="fill: none;"/>
    <path id="path-3" d="M 206.584 186.663 L 223.158 196.862 C 226.558 198.562 229.958 200.262 233.357 201.962" style="fill: none;"/>
  </defs>
  <circle style="fill: rgb(251, 104, 136);" cx="255.031" cy="250.833" r="209.461" transform="matrix(1.105229, 0, 0, 1.098758, -32.843178, -21.23464)"/>
  <text style="fill: rgb(255, 255, 255); font-family: Arial, sans-serif; font-size: 69px; font-weight: 700; stroke-width: 0px; text-transform: capitalize; white-space: pre;" transform="matrix(3.34855, -1.794144, 1.794144, 3.34855, -976.817322, 93.595543)"><textPath xlink:href="#path-0">C</textPath></text>
  <text style="fill: rgb(255, 255, 255); font-family: Arial, sans-serif; font-size: 69px; font-weight: 700; stroke-width: 0px; white-space: pre;" transform="matrix(3.34855, -1.794144, 1.794144, 3.34855, -771.008423, 93.595543)"><textPath xlink:href="#path-3">C</textPath></text>
</svg>