<?xml version="1.0" encoding="utf-8"?>
<svg viewBox="0 0 500 437" xmlns="http://www.w3.org/2000/svg">
  <g transform="matrix(1.677366, 0, 0, 1.677366, 35.702217, -3.070918)" style="">
    <path d="M 237.906 160.722 C 208.166 166.857 206.121 156.788 206.121 156.788 C 237.521 110.195 250.648 51.052 239.321 36.577 C 208.417 -2.908 154.922 15.766 154.029 16.25 L 153.742 16.302 C 147.866 15.082 141.291 14.356 133.9 14.235 C 120.444 14.015 110.236 17.763 102.49 23.637 C 102.49 23.637 7.06 -15.677 11.499 73.081 C 12.443 91.963 38.563 215.954 69.717 178.503 C 81.104 164.808 92.107 153.229 92.107 153.229 C 97.571 156.859 104.113 158.711 110.971 158.046 L 111.504 157.594 C 111.338 159.294 111.414 160.957 111.717 162.926 C 103.691 171.893 106.05 173.467 90.006 176.77 C 73.771 180.116 83.308 186.072 89.535 187.63 C 97.084 189.517 114.548 192.191 126.348 175.672 L 125.878 177.557 C 129.022 180.076 131.23 193.94 130.86 206.509 C 130.49 219.077 130.243 227.706 132.72 234.446 C 135.199 241.186 137.668 256.351 158.76 251.832 C 176.383 248.055 185.516 238.268 186.787 221.942 C 187.688 210.336 189.729 212.052 189.857 201.675 L 191.494 196.763 C 193.381 181.03 191.794 175.954 202.651 178.315 L 205.291 178.547 C 213.281 178.91 223.741 177.261 229.88 174.408 C 243.098 168.274 250.938 158.031 237.904 160.722 L 237.906 160.722" fill="#336791"/>
    <path d="M 108.076 81.525 C 105.396 81.152 102.969 81.497 101.741 82.427 C 101.051 82.95 100.837 83.556 100.779 83.973 C 100.625 85.078 101.399 86.3 101.875 86.93 C 103.221 88.714 105.187 89.94 107.133 90.21 C 107.415 90.25 107.696 90.268 107.975 90.268 C 111.22 90.268 114.171 87.741 114.431 85.876 C 114.756 83.54 111.365 81.983 108.076 81.526 M 196.86 81.599 C 196.604 79.768 193.346 79.246 190.254 79.676 C 187.166 80.106 184.172 81.5 184.422 83.335 C 184.622 84.762 187.199 87.198 190.249 87.198 C 190.507 87.198 190.767 87.181 191.029 87.144 C 193.065 86.862 194.559 85.569 195.269 84.824 C 196.349 83.688 196.975 82.422 196.86 81.599" fill="#FFF"/>
    <path d="M 247.802 160.025 C 246.668 156.596 243.018 155.493 236.954 156.745 C 218.949 160.461 212.501 157.887 210.384 156.328 C 224.379 135.008 235.892 109.236 242.103 85.191 C 245.045 73.801 246.67 63.223 246.803 54.601 C 246.95 45.138 245.338 38.184 242.014 33.936 C 228.612 16.811 208.942 7.625 185.132 7.373 C 168.763 7.189 154.933 11.378 152.252 12.556 C 146.606 11.152 140.451 10.29 133.75 10.18 C 121.462 9.981 110.84 12.923 102.046 18.92 C 98.226 17.498 88.354 14.109 76.281 12.164 C 55.409 8.804 38.823 11.35 26.987 19.735 C 12.864 29.741 6.344 47.627 7.607 72.895 C 8.032 81.396 12.876 107.548 20.52 132.593 C 30.582 165.557 41.52 184.218 53.028 188.057 C 54.375 188.506 55.928 188.82 57.641 188.82 C 61.839 188.82 66.986 186.928 72.341 180.49 C 78.873 172.655 85.629 165.009 92.602 157.564 C 97.126 159.992 102.096 161.348 107.179 161.484 C 107.189 161.617 107.202 161.75 107.214 161.882 C 106.339 162.925 105.482 163.984 104.644 165.057 C 101.122 169.528 100.389 170.459 89.052 172.793 C 85.827 173.459 77.262 175.224 77.136 181.228 C 77 187.788 87.261 190.543 88.43 190.835 C 92.504 191.855 96.429 192.358 100.172 192.358 C 109.275 192.358 117.286 189.366 123.688 183.577 C 123.491 206.963 124.466 230.007 127.274 237.028 C 129.574 242.776 135.192 256.823 152.938 256.822 C 155.542 256.822 158.408 256.519 161.561 255.843 C 180.082 251.873 188.125 243.687 191.236 225.64 C 192.901 215.995 195.758 192.964 197.102 180.61 C 199.938 181.495 203.589 181.9 207.536 181.899 C 215.768 181.899 225.267 180.15 231.224 177.385 C 237.916 174.277 249.992 166.651 247.802 160.025 Z M 203.696 76.545 C 203.635 80.192 203.133 83.503 202.601 86.959 C 202.028 90.676 201.436 94.519 201.287 99.184 C 201.14 103.724 201.707 108.444 202.255 113.009 C 203.363 122.229 204.5 131.721 200.099 141.087 C 199.368 139.792 198.717 138.453 198.149 137.078 C 197.602 135.752 196.414 133.622 194.769 130.674 C 188.37 119.198 173.385 92.324 181.056 81.358 C 183.341 78.094 189.14 74.738 203.696 76.545 Z M 186.052 14.758 C 207.386 15.229 224.262 23.21 236.21 38.478 C 245.374 50.189 235.283 103.476 206.07 149.447 C 205.776 149.073 205.481 148.701 205.184 148.33 L 204.814 147.868 C 212.363 135.401 210.887 123.066 209.573 112.13 C 209.033 107.642 208.523 103.403 208.653 99.421 C 208.787 95.201 209.345 91.581 209.885 88.081 C 210.548 83.768 211.223 79.305 211.037 74.044 C 211.176 73.492 211.232 72.84 211.159 72.066 C 210.684 67.021 204.924 51.922 193.184 38.256 C 186.762 30.781 177.397 22.416 164.61 16.774 C 170.11 15.634 177.631 14.571 186.052 14.758 Z M 66.674 175.778 C 60.774 182.872 56.7 181.512 55.36 181.066 C 46.63 178.154 36.5 159.702 27.569 130.442 C 19.841 105.124 15.325 79.665 14.967 72.526 C 13.839 49.948 19.312 34.213 31.235 25.757 C 50.639 11.997 82.541 20.233 95.36 24.41 C 95.176 24.592 94.984 24.762 94.802 24.947 C 73.766 46.191 74.265 82.487 74.317 84.706 C 74.315 85.562 74.387 86.774 74.485 88.441 C 74.847 94.546 75.521 105.908 73.721 118.775 C 72.049 130.732 75.735 142.435 83.832 150.884 C 84.663 151.749 85.536 152.573 86.449 153.352 C 82.845 157.212 75.012 165.748 66.674 175.778 Z M 89.153 145.785 C 82.627 138.975 79.663 129.503 81.02 119.795 C 82.92 106.203 82.219 94.365 81.842 88.005 C 81.789 87.115 81.742 86.335 81.715 85.72 C 84.788 82.995 99.029 75.365 109.185 77.692 C 113.819 78.753 116.643 81.909 117.817 87.337 C 123.893 115.44 118.621 127.153 114.385 136.566 C 113.512 138.505 112.687 140.338 111.983 142.234 L 111.437 143.7 C 110.055 147.406 108.769 150.852 107.972 154.124 C 101.034 154.104 94.285 151.14 89.153 145.784 Z M 90.218 183.685 C 88.192 183.179 86.37 182.3 85.301 181.571 C 86.194 181.151 87.783 180.579 90.539 180.011 C 103.876 177.266 105.936 175.328 110.434 169.617 C 111.465 168.307 112.634 166.823 114.253 165.015 L 114.255 165.013 C 116.666 162.313 117.769 162.771 119.769 163.601 C 121.39 164.271 122.969 166.303 123.609 168.539 C 123.912 169.595 124.252 171.599 123.139 173.159 C 113.743 186.315 100.051 186.146 90.218 183.685 Z M 160.017 248.637 C 143.701 252.133 137.924 243.808 134.117 234.291 C 131.66 228.147 130.452 200.441 131.309 169.844 C 131.32 169.437 131.262 169.044 131.15 168.674 C 131.05 167.943 130.897 167.221 130.694 166.512 C 129.42 162.06 126.315 158.336 122.59 156.792 C 121.11 156.179 118.394 155.054 115.13 155.889 C 115.826 153.021 117.033 149.782 118.342 146.275 L 118.891 144.8 C 119.509 143.137 120.285 141.414 121.105 139.59 C 125.538 129.742 131.609 116.253 125.02 85.78 C 122.552 74.366 114.31 68.792 101.816 70.087 C 94.326 70.862 87.473 73.884 84.055 75.617 C 83.32 75.989 82.648 76.349 82.02 76.699 C 82.974 65.199 86.578 43.707 100.06 30.109 C 108.549 21.549 119.854 17.321 133.628 17.549 C 160.768 17.993 178.172 31.921 187.994 43.528 C 196.458 53.529 201.041 63.604 202.87 69.038 C 189.115 67.639 179.76 70.354 175.018 77.134 C 164.701 91.882 180.662 120.506 188.333 134.263 C 189.74 136.784 190.954 138.963 191.336 139.889 C 193.834 145.943 197.068 149.985 199.429 152.935 C 200.153 153.839 200.855 154.716 201.389 155.482 C 197.223 156.683 189.74 159.458 190.422 173.329 C 189.872 180.289 185.961 212.875 183.974 224.388 C 181.351 239.598 175.754 245.263 160.017 248.638 Z M 228.121 170.701 C 223.861 172.678 216.732 174.161 209.96 174.48 C 202.48 174.83 198.672 173.642 197.776 172.911 C 197.356 164.267 200.573 163.364 203.978 162.408 C 204.513 162.258 205.035 162.111 205.539 161.935 C 205.852 162.19 206.195 162.443 206.571 162.691 C 212.583 166.659 223.306 167.087 238.445 163.962 L 238.611 163.929 C 236.569 165.838 233.075 168.4 228.121 170.701 Z" style="fill: rgb(123, 164, 198);"/>
  </g>
</svg>