<?xml version="1.0" encoding="utf-8"?>
<svg viewBox="0 0 500 437" xmlns="http://www.w3.org/2000/svg">
  <path d="M 335.178 299.13 C 351.475 297.494 363.837 283.875 363.275 267.531 C 362.715 251.187 348.665 238.113 331.807 238.113 L 330.684 238.113 C 313.262 238.657 299.777 252.821 300.338 269.709 C 300.901 277.881 304.271 284.965 309.329 289.867 C 290.223 326.369 261.003 353.063 217.172 375.399 C 187.39 390.653 156.483 396.103 125.577 392.289 C 100.29 389.019 80.621 378.125 68.258 360.145 C 50.277 333.451 48.592 304.575 63.764 275.703 C 74.441 255 91.298 239.746 101.975 232.119 C 99.727 225.036 96.355 213.052 94.67 204.336 C 13.189 261.539 21.619 338.899 46.343 375.399 C 64.887 402.641 102.538 419.529 144.12 419.529 C 155.359 419.529 166.597 418.438 177.837 415.716 C 249.765 402.096 304.273 360.69 335.178 299.13 Z M 434.08 231.575 C 391.371 183.088 328.436 156.394 256.508 156.394 L 247.517 156.394 C 242.46 146.588 231.783 140.049 219.981 140.049 L 218.858 140.049 C 201.438 140.595 187.953 154.758 188.514 171.648 C 189.076 187.991 203.124 201.067 219.981 201.067 L 221.105 201.067 C 233.467 200.521 244.145 192.894 248.64 182.542 L 258.754 182.542 C 301.463 182.542 341.921 194.528 378.45 217.955 C 406.545 235.933 426.775 259.36 438.013 287.687 C 447.567 310.57 447.004 332.905 436.889 351.975 C 421.156 380.848 394.744 396.647 359.904 396.647 C 337.426 396.647 316.074 390.109 304.834 385.205 C 298.653 390.653 287.413 399.37 279.546 404.818 C 303.71 415.715 328.436 421.708 352.038 421.708 C 405.983 421.708 445.88 392.832 461.053 363.96 C 477.349 332.36 476.225 277.881 434.08 231.575 Z M 148.616 308.388 C 149.179 324.733 163.225 337.807 180.085 337.807 L 181.208 337.807 C 198.629 337.264 212.114 323.099 211.553 306.211 C 210.991 289.866 196.942 276.792 180.085 276.792 L 178.961 276.792 C 177.837 276.792 176.149 276.792 175.028 277.334 C 151.988 240.289 142.435 199.976 145.807 156.392 C 148.054 123.705 159.293 95.375 178.961 71.948 C 195.256 51.791 226.725 41.985 248.08 41.44 C 307.644 40.351 332.931 112.263 334.616 141.138 C 341.921 142.771 354.284 146.587 362.715 149.31 C 355.97 61.056 299.777 15.292 245.832 15.292 C 195.256 15.292 148.616 50.704 130.072 103.004 C 104.223 172.737 121.08 239.746 152.548 292.592 C 149.741 296.404 148.054 302.397 148.616 308.391 Z" fill="#764ABC" style=""/>
</svg>