<?xml version="1.0" encoding="utf-8"?>
<svg viewBox="0 0 500 437" style="zoom: 1;" xmlns="http://www.w3.org/2000/svg" xmlns:bx="https://boxy-svg.com">
  <rect stroke="none" x="-104.187851px" height="502.122742px" y="-14.334749px" id="rect1" stroke-width="3px" width="683.472656px" transform="" style="pointer-events: none; fill: rgb(11, 11, 63);"/>
  <defs>
    <symbol id="symbol-0" viewBox="0 0 100 100" bx:pinned="true">
      <defs>
        <bx:grid x="0" y="0" width="1.649" height="1.649"/>
      </defs>
      <path d="M 32.854 31.068 C 32.918 31.038 35.439 25.877 37.66 29.867 C 39.88 33.856 42.209 31.499 42.465 29.867 C 42.72 28.234 45.379 26.125 48.471 29.867 C 51.564 33.608 53.276 29.867 53.276 29.867 C 53.276 29.867 55.954 25.076 58.082 29.867 C 60.209 34.657 61.685 29.867 61.685 29.867 C 61.685 29.867 64.381 25.71 66.491 29.867 C 68.6 34.023 70.175 30.988 70.095 31.068 C 70.014 31.148 71.913 26.249 74.9 31.068 C 77.887 35.886 78.504 32.269 78.504 32.269 C 78.504 32.269 80.524 27.281 82.108 32.269 C 83.691 37.257 85.711 33.47 85.711 33.47 C 85.711 33.47 89.246 29.303 89.315 34.672 C 89.385 40.041 91.718 35.873 91.718 35.873 C 91.718 35.873 94.641 30.867 95.322 37.074 C 96.002 43.282 97.724 38.276 97.724 38.276 C 97.724 38.276 99.093 37.909 98.926 41.879 C 98.758 45.85 97.778 46.565 96.523 46.685 C 95.269 46.804 92.323 45.335 92.919 47.886 C 93.515 50.437 90.619 52.36 89.315 50.289 C 88.011 48.217 84.317 47.16 84.51 51.49 C 84.703 55.82 79.851 54.775 79.705 52.691 C 79.559 50.608 75.03 49.922 74.9 53.892 C 74.769 57.863 70.836 55.325 71.296 53.892 C 71.756 52.46 66.904 49.645 66.491 53.892 C 66.078 58.14 62.606 57.283 62.887 55.094 C 63.167 52.905 58.025 51.102 58.082 55.094 C 58.138 59.086 55.225 58.051 54.478 55.094 C 53.731 52.137 50.204 50.881 49.672 55.094 C 49.136 59.336 44.914 57.914 44.867 55.094 C 44.821 52.274 42.076 50.689 41.263 55.094 C 40.45 59.499 37.218 57.544 37.66 55.094 C 38.101 52.644 33.492 49.917 32.854 53.892 C 32.216 57.868 28.264 57.096 28.049 53.892 C 27.834 50.689 23.726 50.144 23.244 52.691 C 22.762 55.238 18.498 55.857 18.439 52.691 C 18.38 49.526 15.783 49.195 14.835 51.49 C 13.887 53.785 10.648 52.36 11.231 50.289 C 11.814 48.217 8.935 43.485 6.596 46.172 C 4.257 48.859 0.217 36.985 4.023 39.477 C 7.829 41.969 6.55 37.09 6.426 37.074 C 6.302 37.058 7.247 31.107 10.03 35.873 C 12.812 40.639 13.998 34.851 13.634 34.672 C 13.269 34.492 14.312 28.384 17.237 33.47 C 20.163 38.557 20.841 32.269 20.841 32.269 C 20.843 32.268 21.828 27.571 25.647 31.068 C 29.465 34.565 29.971 35.08 32.854 31.068 Z" style="stroke: rgb(0, 0, 0); fill: none;"/>
    </symbol>
    <pattern id="pattern-0" viewBox="0 0 100 100" patternUnits="userSpaceOnUse" preserveAspectRatio="none" width="100" height="100" bx:pinned="true"/>
  </defs>
  <g transform="matrix(0.884018, 0, 0, 0.86952, 28.995512, 1.171999)" style="pointer-events: none;">
    <circle style="fill: rgb(255, 153, 201);" cx="250" cy="250" r="185.928"/>
    <circle style="fill: rgb(255, 255, 255);" cx="250" cy="250" r="157.69"/>
  </g>
  <g>
    <path style="fill: none; stroke-width: 6px; stroke: rgba(193, 189, 219, 0.58); visibility: hidden;" d="M 204.423 202.09 C 205.694 204.732 223.721 210.763 228.395 206.775 C 231.973 203.722 231.862 200.806 233.396 195.601 C 235.884 187.163 229.327 157.041 247.748 152.587 C 251.146 151.765 259.089 151.575 261.428 151.453"/>
    <path d="M 268.191 157.253 C 273.011 161.709 277.416 170.33 282.13 174.675 C 303.407 194.286 316.189 190.814 328.203 172.835 C 340.216 154.857 352.075 162.31 361.593 176.708 C 371.11 191.108 376.198 182.153 379.943 184.839 C 383.687 187.526 378.499 199.199 372.965 204.164 C 367.431 209.128 360.684 213.612 349.576 211.799 C 338.468 209.986 325.122 189.384 310.143 225.742 C 295.164 262.102 281.542 246.956 264.224 235.719 C 246.907 224.483 234.556 202.438 212.88 243.697 C 191.204 284.957 178.916 254.284 166.808 245.537 C 154.699 236.79 146.57 244.942 139.04 243.089 C 131.51 241.236 127.556 242.526 119.472 231.414 C 111.388 220.301 119.62 218.754 126.378 222.032 C 133.135 225.31 142.454 221.759 145.434 206.574 C 148.414 191.388 170.112 176.85 184.866 192.629 C 190.557 198.716 198.876 200.814 204.598 202.366" style="fill: none; vector-effect: non-scaling-stroke; stroke-dashoffset: -22px; transform-origin: 272.319px 245.238px; stroke-width: 6px; stroke: rgba(193, 189, 219, 0.58); visibility: hidden;"/>
  </g>
  <path d="M 218.092 169.911 C 223.471 180.937 227.661 177.816 229.368 171.592 C 231.072 165.364 240.078 155.406 246.11 167.263 C 250.918 176.712 254.004 169.349 255.738 167.834 C 257.471 166.32 260.907 154.609 266.062 167.849" style="paint-order: stroke; fill-rule: nonzero; fill: none; stroke-width: 5px; stroke: rgb(158, 228, 147);"/>
  <path d="M 208.522 183.143 C 214.984 189.018 215.841 189.884 220.721 183.143 C 220.83 183.092 225.098 174.419 228.857 181.125 C 232.616 187.827 236.558 183.866 236.991 181.125 C 237.423 178.38 241.925 174.836 247.159 181.125 C 252.394 187.41 255.293 180.976 255.293 180.976 C 255.293 180.976 259.826 173.074 263.428 181.125" style="fill: none; stroke: rgb(193, 189, 219); stroke-width: 4px;"/>
  <path d="M 248.212 192.261 C 249.309 194.181 250.46 193.081 250.586 192.296 C 250.712 191.511 252.026 190.496 253.553 192.296 C 255.081 194.097 255.929 192.261 255.929 192.261" style="fill: none; stroke-width: 2px; stroke: rgb(162, 199, 229);"/>
  <path id="path26" d="M 264.044 97.456 C 250.535 97.237 234.737 117.429 235.262 135.436 C 235.384 140.921 238.149 152.043 242.185 166.013 C 216.741 182.501 187.195 199.421 187.195 221.618 C 186.786 241.965 206.651 267.884 253.774 267.633 C 261.007 267.603 267.512 267.041 273.297 266.076 C 277.605 280.86 280.469 292.532 280.453 297.922 C 280.602 319.175 235.999 321.279 233.864 309.063 C 243.259 308.86 250.741 304.189 250.741 298.406 C 250.741 292.5 242.932 287.686 233.238 287.686 C 227.911 287.686 223.163 289.15 219.942 291.442 C 219.869 291.489 219.779 291.535 219.708 291.582 C 218.98 292.066 218.366 292.641 217.763 293.296 C 215.778 295.401 214.489 298.423 214.418 302.736 C 214.418 320.532 286.286 331.984 286.286 296.896 C 286.399 292.173 283.156 280.194 278.43 265.092 C 329.714 253.487 316.829 205.823 269.643 205.599 C 265.983 205.622 262.457 205.889 259.063 206.429 C 256.378 198.33 253.782 190.471 251.52 183.249 C 269.436 172.232 285.081 157.97 284.73 131.686 C 284.785 112.811 274.741 97.676 264.044 97.456 Z M 267.229 115.719 C 273.343 115.348 278.198 118.9 278.198 126.719 C 278.693 140.152 263.662 151.88 245.764 163.675 C 244.051 157.216 242.929 151.98 242.808 148.874 C 243.314 127.894 257.039 116.331 267.229 115.719 Z M 248.019 185.344 C 250.2 192.378 252.557 199.791 254.94 207.254 C 223.711 214.212 208.724 241.462 252.998 253.657 C 226.008 239.274 239.29 222.25 258.751 219.283 C 263.643 234.576 268.424 249.669 272.286 262.711 C 267.041 263.864 260.923 264.534 253.774 264.565 C 235.902 264.565 200.183 257.442 200.183 230.48 C 200.183 207.896 225.191 198.721 248.019 185.344 Z M 263.186 218.794 C 263.967 218.766 264.812 218.777 265.594 218.794 C 298.111 218.794 310.37 251.118 277.265 261.45 C 273.143 248.484 268.149 233.618 263.186 218.794 Z" style="fill: rgb(255, 153, 201);">
    <title>Note</title>
  </path>
  <path d="M 267.334 170.485 C 272.493 183.872 275.904 169.87 276.127 168.423 C 276.349 166.977 282.61 158.087 287.729 169.706 C 292.845 181.321 296.664 172.841 296.472 173.062 C 296.274 173.285 300.88 159.594 308.126 173.062 C 315.371 186.529 316.869 176.421 316.869 176.421 C 316.869 176.421 321.77 162.478 325.61 176.421 C 329.45 190.36 334.351 179.775 334.351 179.775 C 334.351 179.775 342.924 168.13 343.092 183.135 C 343.262 198.143 348.92 186.491 348.92 186.491 C 348.92 186.491 356.011 172.5 357.663 189.849 C 359.311 207.2 363.489 193.208 363.489 193.208 C 363.489 193.208 366.809 192.184 366.403 203.279 C 365.996 214.378 363.618 216.376 360.576 216.713 C 357.536 217.044 350.388 212.939 351.832 220.068 C 353.278 227.199 346.255 232.574 343.092 226.785 C 339.928 220.995 330.969 218.039 331.437 230.141 C 331.904 242.244 320.136 239.322 319.781 233.497 C 319.427 227.676 308.441 225.757 308.126 236.855 C 307.807 247.952 298.269 240.859 299.384 236.855 C 300.5 232.852 288.731 224.984 287.729 236.855 C 286.728 248.727 278.306 246.332 278.987 240.214 C 279.666 234.096 267.194 229.057 267.331 240.214 C 267.466 251.373 260.401 248.48 258.592 240.214 C 256.779 231.95 248.224 228.44 246.932 240.214 C 245.633 252.07 235.391 248.095 235.278 240.214 C 235.166 232.334 228.508 227.901 226.536 240.214 C 224.563 252.526 216.724 247.063 217.796 240.214 C 218.865 233.366 207.684 225.747 206.139 236.855 C 204.59 247.967 195.006 245.809 194.482 236.855 C 193.962 227.901 183.997 226.378 182.827 233.497 C 181.661 240.618 171.316 242.346 171.172 233.497 C 171.031 224.653 164.731 223.725 162.431 230.141 C 160.133 236.556 152.275 232.574 153.687 226.785 C 155.104 220.995 148.119 207.768 142.446 215.278 C 136.772 222.788 126.975 189.6 136.205 196.566 C 145.437 203.53 142.335 189.895 142.034 189.849 C 141.733 189.804 144.024 173.173 150.776 186.491 C 157.524 199.814 160.4 183.636 159.518 183.135 C 158.632 182.634 161.162 165.561 168.257 179.775 C 175.355 193.995 177 176.421 177 176.421 C 177.004 176.418 179.395 163.288 188.656 173.062 C 197.917 182.836 199.147 184.274 206.204 172.366 C 211.623 165.466 212.76 157.782 218.237 169.903" style="paint-order: stroke; fill-rule: nonzero; fill: none; stroke-width: 5px; stroke: rgb(158, 228, 147);"/>
  <path d="M 308.167 217.458 C 308.494 224.733 300.28 222.978 300.033 219.477 C 299.786 215.976 292.119 214.823 291.899 221.494 C 291.677 228.166 285.019 223.902 285.797 221.494 C 286.577 219.088 278.363 214.357 277.663 221.494 C 276.965 228.632 271.087 227.192 271.563 223.514 C 272.036 219.835 263.332 216.806 263.428 223.514 C 263.523 230.221 258.592 228.482 257.328 223.514 C 256.063 218.546 250.092 216.434 249.192 223.514 C 248.284 230.643 241.137 228.252 241.058 223.514 C 240.979 218.776 236.333 216.112 234.956 223.514 C 233.581 230.916 228.109 227.63 228.857 223.514" style="fill: none; stroke: rgb(193, 189, 219); stroke-width: 4px;"/>
  <path d="M 263.428 181.125 C 267.03 189.172 269.528 181.125 269.528 181.125 C 269.528 181.125 274.092 174.14 277.663 181.125 C 281.234 188.108 283.901 183.007 283.765 183.143 C 283.628 183.277 286.842 175.044 291.899 183.143 C 296.955 191.238 298 185.16 298 185.16 C 298 185.16 301.419 176.779 304.1 185.16 C 306.781 193.542 310.201 187.179 310.201 187.179 C 310.201 187.179 316.184 180.176 316.301 189.199 C 316.42 198.22 320.369 191.216 320.369 191.216 C 320.369 191.216 325.317 182.805 326.47 193.234 C 327.621 203.665 330.536 195.254 330.536 195.254 C 330.536 195.254 332.854 194.638 332.571 201.308 C 332.287 207.981 330.628 209.183 328.503 209.384 C 326.38 209.584 321.393 207.115 322.402 211.402 C 323.411 215.689 318.509 218.92 316.301 215.44 C 314.094 211.959 307.84 210.182 308.167 217.458" style="fill: none; stroke: rgb(193, 189, 219); stroke-width: 4px;"/>
  <path d="M 228.857 223.514 C 229.604 219.397 221.801 214.815 220.721 221.494 C 219.641 228.176 212.952 226.878 212.587 221.494 C 212.224 216.112 205.269 215.196 204.453 219.477 C 203.637 223.755 196.419 224.796 196.319 219.477 C 196.22 214.157 191.823 213.602 190.218 217.458 C 188.613 221.315 183.13 218.92 184.118 215.44 C 185.105 211.959 180.231 204.007 176.271 208.522 C 172.312 213.037 165.472 193.085 171.915 197.272 C 178.358 201.459 176.194 193.261 175.984 193.234 C 175.774 193.207 177.373 183.207 182.084 191.216 C 186.794 199.225 188.801 189.499 188.185 189.199 C 187.568 188.895 189.333 178.632 194.284 187.179 C 199.238 195.727 200.386 185.16 200.386 185.16 C 200.389 185.159 202.056 177.267 208.522 183.143" style="fill: none; stroke: rgb(193, 189, 219); stroke-width: 4px;"/>
  <path d="M 255.929 192.261 C 255.929 192.261 257.25 189.955 258.302 192.261 C 259.353 194.566 260.083 192.261 260.083 192.261 C 260.083 192.261 261.414 190.262 262.457 192.261 C 263.5 194.261 264.278 192.801 264.238 192.838 C 264.198 192.878 265.136 190.52 266.612 192.838 C 268.089 195.158 268.393 193.418 268.393 193.418 C 268.393 193.418 269.391 191.018 270.174 193.418 C 270.957 195.818 271.954 193.994 271.954 193.994 C 271.954 193.994 273.701 191.99 273.735 194.575 C 273.769 197.157 274.921 195.151 274.921 195.151 C 274.921 195.151 276.367 192.742 276.703 195.73 C 277.039 198.718 277.89 196.308 277.89 196.308 C 277.89 196.308 278.566 196.132 278.484 198.043 C 278.4 199.954 277.917 200.297 277.298 200.355 C 276.677 200.413 275.221 199.706 275.516 200.933 C 275.81 202.161 274.38 203.086 273.735 202.089 C 273.09 201.092 271.265 200.583 271.361 202.667 C 271.457 204.75 269.06 204.248 268.987 203.244 C 268.915 202.243 266.677 201.912 266.612 203.823 C 266.547 205.735 264.604 204.512 264.832 203.823 C 265.059 203.133 262.662 201.779 262.457 203.823 C 262.253 205.867 260.537 205.455 260.677 204.401 C 260.815 203.349 258.274 202.48 258.302 204.401 C 258.33 206.323 256.891 205.824 256.522 204.401 C 256.152 202.978 254.409 202.373 254.147 204.401 C 253.881 206.444 251.797 205.759 251.773 204.401 C 251.75 203.045 250.394 202.281 249.993 204.401 C 249.59 206.522 247.993 205.579 248.212 204.401 C 248.429 203.222 246.152 201.91 245.837 203.823 C 245.522 205.736 243.57 205.365 243.464 203.823 C 243.358 202.281 241.327 202.019 241.09 203.244 C 240.85 204.47 238.744 204.769 238.714 203.244 C 238.685 201.722 237.402 201.563 236.934 202.667 C 236.465 203.772 234.865 203.086 235.153 202.089 C 235.44 201.092 234.018 198.814 232.862 200.108 C 231.707 201.401 229.71 195.687 231.591 196.886 C 233.472 198.085 232.84 195.737 232.779 195.73 C 232.717 195.722 233.184 192.858 234.56 195.151 C 235.935 197.445 236.519 194.66 236.34 194.575 C 236.16 194.487 236.676 191.548 238.121 193.994 C 239.566 196.443 239.901 193.418 239.901 193.418 C 239.902 193.417 240.388 191.156 242.276 192.838 C 244.163 194.522 244.412 194.771 245.837 192.838 C 245.869 192.826 247.114 190.342 248.212 192.261" style="fill: none; stroke-width: 2px; stroke: rgb(162, 199, 229);"/>
  <path d="M 198.778 113.183 L 200.094 120.322 L 204.781 122.326 L 200.094 124.33 L 198.778 131.469 L 197.462 124.33 L 192.775 122.326 L 197.462 120.322 Z" style="transform-box: fill-box; transform-origin: 50% 50%; fill: rgb(158, 228, 147);" transform="matrix(0.968883, -0.247519, 0.247519, 0.968883, 0.000001, 0.000003)" bx:shape="star 198.778 122.326 6.003 9.143 0.31 4 1@411abc4c"/>
  <path d="M 315.167 140.828 L 316.992 148.897 L 322.123 151.766 L 316.992 154.635 L 315.167 162.704 L 313.342 154.635 L 308.211 151.766 L 313.342 148.897 Z" style="transform-box: fill-box; transform-origin: 50% 50%; fill: rgb(193, 189, 219);" transform="matrix(0.945759, 0.32487, -0.32487, 0.945759, 0.000001, 0.000009)" bx:shape="star 315.167 151.766 6.956 10.938 0.371 4 1@04908256"/>
  <path d="M 256.049 130.167 L 257.339 138.056 L 261.933 140.271 L 257.339 142.486 L 256.049 150.375 L 254.759 142.486 L 250.165 140.271 L 254.759 138.056 Z" style="fill: rgb(162, 199, 229);" bx:shape="star 256.049 140.271 5.884 10.104 0.31 4 1@9b12fdca"/>
  <path d="M 179.301 245.588 L 181.948 257.575 L 191.377 260.94 L 181.948 264.305 L 179.301 276.292 L 176.654 264.305 L 167.225 260.94 L 176.654 257.575 Z" style="transform-box: fill-box; transform-origin: 50% 50%; fill: rgb(193, 189, 219);" transform="matrix(0.996234, 0.08671, -0.08671, 0.996234, 0.000009, -0.000008)" bx:shape="star 179.301 260.94 12.076 15.352 0.31 4 1@9cd53229"/>
  <path d="M 315.241 267.346 L 318.477 281.462 L 329.111 285.758 L 318.477 290.054 L 315.241 304.17 L 312.005 290.054 L 301.371 285.758 L 312.005 281.462 Z" style="transform-box: fill-box; transform-origin: 50% 50%; fill: rgb(158, 228, 147);" transform="matrix(0.985675, -0.168656, 0.168656, 0.985675, -0.000006, 0.000016)" bx:shape="star 315.241 285.758 13.87 18.412 0.33 4 1@4536a455"/>
  <path d="M 315.241 270.159 L 317.772 282.118 L 326.089 285.758 L 317.772 289.398 L 315.241 301.357 L 312.71 289.398 L 304.393 285.758 L 312.71 282.118 Z" style="transform-origin: 315.241px 285.758px; fill: rgb(162, 199, 229);" transform="matrix(0.99989, 0.014805, -0.014805, 0.99989, -56.152637, 1.752476)" bx:shape="star 315.241 285.758 10.848 15.599 0.33 4 1@06cb5af8"/>
</svg>