<?xml version="1.0" encoding="utf-8"?>
<svg cursor="default" style="zoom: 2;" viewBox="0 0 500 437" xmlns="http://www.w3.org/2000/svg" xmlns:bx="https://boxy-svg.com">
  <defs>
    <style bx:fonts="Audiowide" bx:pinned="true">@import url(https://fonts.googleapis.com/css2?family=Audiowide%3Aital%2Cwght%400%2C400&amp;display=swap);</style>
    <linearGradient gradientUnits="userSpaceOnUse" x1="231.5" y1="68.558" x2="231.5" y2="395.558" id="gradient-0">
      <stop offset="0" style="stop-color: rgba(195, 255, 0, 1)"/>
      <stop offset="1" style="stop-color: rgba(117, 153, 0, 1)"/>
    </linearGradient>
  </defs>
  <rect stroke="none" x="-248.875" height="669.982" y="-194.499" id="rect1" stroke-width="3px" width="924.184" style="fill: rgb(112, 169, 203);"/>
  <g style="" transform="matrix(0.884018, 0, 0, 0.86952, 28.995512, 1.171999)">
    <circle r="185.928" cx="250.597015px" style="fill: rgb(255, 119, 138);" cy="251.199982px"/>
    <circle r="157.69" cx="252.439209px" style="fill: rgb(255, 255, 255);" cy="250.558121px"/>
  </g>
  <rect x="170.381" y="162.514" width="162.659" height="97.153" style="fill: rgba(255, 56, 89, 0.6);"/>
  <g style="" transform="matrix(1.148158, 0, 0, 1.194926, -36.88266, -42.015846)">
    <path d="M 218.094 194.487 L 214 194.487 Q 213.206 194.487 212.365 194.661 Q 211.524 194.836 210.826 195.217 Q 210.128 195.598 209.683 196.201 Q 209.239 196.804 209.239 197.661 L 209.239 197.724 L 209.239 208.864 Q 209.239 211.308 208.541 213.165 Q 207.842 215.021 206.732 216.386 Q 208.065 218.1 208.62 220.068 Q 209.175 222.036 209.175 223.749 L 209.175 234.985 Q 209.175 236.096 209.747 236.746 Q 210.318 237.397 211.111 237.73 Q 211.905 238.063 212.698 238.143 Q 213.492 238.222 213.936 238.222 L 218.03 238.222 L 218.03 246.569 L 213.873 246.569 Q 212.571 246.569 211.096 246.299 Q 209.62 246.03 208.176 245.443 Q 206.732 244.855 205.414 243.935 Q 204.097 243.015 203.098 241.713 Q 202.098 240.412 201.511 238.73 Q 200.923 237.048 200.923 234.921 L 200.923 223.813 Q 200.923 222.131 200.051 221.306 Q 199.178 220.48 197.623 220.48 Q 196.734 220.48 195.972 220.147 Q 195.211 219.814 194.655 219.258 Q 194.1 218.703 193.782 217.941 Q 193.465 217.18 193.465 216.323 Q 193.465 215.466 193.782 214.72 Q 194.1 213.974 194.655 213.419 Q 195.211 212.863 195.956 212.53 Q 196.702 212.197 197.559 212.165 Q 199.273 212.165 200.13 211.324 Q 200.987 210.483 200.987 208.864 L 200.987 197.661 Q 200.987 194.931 202.098 192.805 Q 203.209 190.678 205.049 189.218 Q 206.89 187.758 209.223 186.996 Q 211.556 186.235 214 186.235 L 218.094 186.235 Z" style="fill: rgb(46, 217, 235); white-space: pre; stroke-width: 1.70715px; stroke-opacity: 0.53; stroke: rgb(114, 186, 185);"/>
    <path d="M 308.352 216.323 Q 308.352 217.18 308.035 217.941 Q 307.717 218.703 307.162 219.258 Q 306.607 219.814 305.861 220.147 Q 305.115 220.48 304.258 220.48 Q 302.639 220.48 301.767 221.306 Q 300.894 222.131 300.894 223.813 L 300.957 234.921 Q 300.957 237.048 300.354 238.73 Q 299.751 240.412 298.736 241.713 Q 297.72 243.015 296.403 243.935 Q 295.086 244.855 293.642 245.443 Q 292.197 246.03 290.722 246.299 Q 289.246 246.569 287.944 246.569 L 283.85 246.569 L 283.787 238.222 L 287.944 238.222 Q 288.357 238.222 289.151 238.143 Q 289.944 238.063 290.722 237.73 Q 291.499 237.397 292.07 236.746 Q 292.642 236.096 292.642 234.985 L 292.642 223.749 Q 292.642 222.036 293.229 220.068 Q 293.816 218.1 295.086 216.386 Q 293.975 215.021 293.261 213.165 Q 292.547 211.308 292.547 208.864 L 292.547 197.724 L 292.547 197.661 Q 292.388 196.772 291.959 196.169 Q 291.531 195.566 290.896 195.185 Q 290.261 194.804 289.484 194.645 Q 288.706 194.487 287.881 194.487 L 283.723 194.487 L 283.723 186.235 L 287.881 186.235 Q 290.452 186.235 292.8 187.044 Q 295.149 187.853 296.942 189.361 Q 298.736 190.869 299.783 192.979 Q 300.83 195.09 300.83 197.661 Q 300.83 197.883 300.862 200.66 Q 300.894 203.437 300.894 208.864 Q 300.894 210.483 301.719 211.324 Q 302.544 212.165 304.258 212.165 Q 305.115 212.197 305.861 212.53 Q 306.607 212.863 307.162 213.419 Q 307.717 213.974 308.035 214.72 Q 308.352 215.466 308.352 216.323 Z" style="fill: rgb(46, 217, 235); white-space: pre; stroke-width: 1.70715px; stroke-opacity: 0.53; stroke: rgb(114, 186, 185);"/>
    <path style="fill: rgb(46, 217, 235); white-space: pre; stroke-width: 1.70715px; stroke-opacity: 0.53; stroke: rgb(114, 186, 185);" d="M 237.361 213.959 L 229.401 205.104 L 221.726 213.921 L 221.726 207.523 L 227.725 200.648 Q 228.41 199.867 229.401 199.867 Q 229.877 199.867 230.324 200.067 Q 230.772 200.267 231.095 200.61 L 237.361 207.637 Z"/>
    <path style="fill: rgb(46, 217, 235); white-space: pre; stroke-width: 1.70715px; stroke-opacity: 0.53; stroke: rgb(114, 186, 185);" d="M 280.814 213.959 L 272.854 205.104 L 265.179 213.921 L 265.179 207.523 L 271.178 200.648 Q 271.863 199.867 272.854 199.867 Q 273.33 199.867 273.777 200.067 Q 274.225 200.267 274.549 200.61 L 280.814 207.637 Z"/>
    <path style="fill: rgb(46, 217, 235); white-space: pre; stroke-width: 1.70715px; stroke-opacity: 0.53; stroke: rgb(114, 186, 185);" d="M 261.797 223.24 L 259.453 236.365 Q 259.375 236.756 259.102 237.039 Q 258.828 237.322 258.438 237.4 Q 258.037 237.469 257.681 237.312 Q 257.325 237.156 257.119 236.824 L 252.471 229.187 L 247.813 236.824 Q 247.647 237.107 247.359 237.264 Q 247.071 237.42 246.739 237.42 Q 246.28 237.42 245.928 237.127 Q 245.577 236.834 245.498 236.365 L 243.135 223.24 L 245.713 223.24 L 247.393 232.488 L 251.397 226.101 Q 251.563 225.818 251.851 225.662 Q 252.139 225.506 252.471 225.506 Q 252.803 225.506 253.086 225.662 Q 253.369 225.818 253.555 226.101 L 257.539 232.488 L 259.219 223.24 Z"/>
  </g>
  <g transform="matrix(0.479482, 0, 0, 0.479482, 140.717651, 108.06353)">
    <g>
      <g>
        <path d="M 455.5 348.558105 L 447 348.558105 L 447 100.058121 C 447 82.689121 432.869 68.558121 415.5 68.558121 L 47.5 68.558121 C 30.131001 68.558121 16 82.689117 16 100.058121 L 16 348.558105 L 7.5 348.558105 C 3.3579999999999997 348.558105 0 351.916105 0 356.058105 L 0 372.058105 C 0 385.016113 10.542 395.558105 23.5 395.558105 L 439.5 395.558105 C 452.458 395.558105 463 385.01610500000004 463 372.058105 L 463 356.058105 C 463 351.916138 459.641998 348.558105 455.5 348.558105 Z M 31 100.058121 C 31 90.960121 38.402 83.558121 47.5 83.558121 L 415.5 83.558121 C 424.598 83.558121 432 90.960121 432 100.058121 L 432 348.558105 L 31 348.558105 L 31 100.058121 Z M 448 372.058105 C 448 376.745105 444.187 380.558105 439.5 380.558105 L 23.5 380.558105 C 18.813 380.558105 15 376.745105 15 372.058105 L 15 363.558105 L 184.025 363.558105 C 184.014 363.724105 184 363.88910500000003 184 364.058105 C 184 368.200105 187.358 371.558105 191.5 371.558105 L 271.5 371.558105 C 275.642 371.558105 279 368.200105 279 364.058105 C 279 363.88910500000003 278.986 363.724105 278.975 363.558105 L 448 363.558105 L 448 372.058105 Z" style="stroke-miterlimit: 1; vector-effect: non-scaling-stroke; stroke-width: 0px; paint-order: fill; stroke: url(#gradient-0); fill: rgb(119, 221, 232);"/>
        <path d="M 407.5 100.558121 L 55.5 100.558121 C 51.358 100.558121 48 103.916121 48 108.058121 L 48 324.058121 C 48 328.200121 51.358 331.558121 55.5 331.558121 L 407.5 331.558121 C 411.642 331.558121 415 328.200121 415 324.058121 L 415 108.05812100000003 C 415 103.916122 411.641998 100.558121 407.5 100.558121 Z M 400 316.558105 L 63 316.558105 L 63 115.558121 L 400 115.558121 L 400 316.558105 Z" style="stroke-width: 0px; fill: rgb(119, 221, 232);"/>
        <rect x="13.761" y="359.286" width="436.539" height="22.449" style="fill: rgb(119, 221, 232);"/>
      </g>
    </g>
  </g>
</svg>