<?xml version="1.0" encoding="utf-8"?>
<svg cursor="default" style="zoom: 2;" viewBox="183.09 90.808 332.241 351.529" xmlns="http://www.w3.org/2000/svg" xmlns:bx="https://boxy-svg.com">
  <defs>
    <style bx:fonts="Acme" bx:pinned="true">@import url(https://fonts.googleapis.com/css2?family=Acme%3Aital%2Cwght%400%2C400&amp;display=swap);</style>
    <style bx:fonts="Audiowide" bx:pinned="true">@import url(https://fonts.googleapis.com/css2?family=Audiowide%3Aital%2Cwght%400%2C400&amp;display=swap);</style>
    <view id="view-3" viewBox="546.242 235.543 23.246 0.275">
      <title>View 3</title>
    </view>
    <bx:grid x="0" y="0" width="15.387" height="17.927"/>
  </defs>
  <g transform="matrix(1.017502, 0, 0, 1, 4.373923, 0)">
    <rect stroke="none" x="-249.907" height="706.674" y="-193.879" id="rect1" stroke-width="3px" width="1192.135" fill="#605c66" style=""/>
    <g style="" transform="matrix(0.884018, 0, 0, 0.86952, 124.62822, -58.965431)">
      <circle r="185.928" cx="250.597015px" style="fill:#9B5DE5;" cy="251.199982px"/>
      <circle r="157.69" cx="252.439209px" style="fill: rgb(255, 255, 255);" cy="250.558121px"/>
    </g>
    <g transform="matrix(1, 0, 0, 1, 98.373718, -61.22945)">
      <path d="M 222.298 192.29 L 218.141 192.29 Q 217.335 192.29 216.481 192.467 Q 215.627 192.644 214.918 193.031 Q 214.209 193.418 213.758 194.03 Q 213.307 194.642 213.307 195.512 L 213.307 195.577 L 213.307 206.888 Q 213.307 209.37 212.598 211.255 Q 211.889 213.14 210.761 214.526 Q 212.114 216.266 212.678 218.264 Q 213.242 220.262 213.242 222.003 L 213.242 233.411 Q 213.242 234.539 213.822 235.199 Q 214.402 235.86 215.208 236.198 Q 216.014 236.537 216.819 236.617 Q 217.625 236.698 218.076 236.698 L 222.233 236.698 L 222.233 245.173 L 218.012 245.173 Q 216.69 245.173 215.192 244.9 Q 213.693 244.626 212.227 244.029 Q 210.761 243.433 209.423 242.499 Q 208.086 241.564 207.071 240.243 Q 206.056 238.922 205.459 237.214 Q 204.863 235.505 204.863 233.346 L 204.863 222.067 Q 204.863 220.359 203.977 219.521 Q 203.091 218.683 201.512 218.683 Q 200.609 218.683 199.836 218.345 Q 199.062 218.006 198.498 217.443 Q 197.934 216.879 197.612 216.105 Q 197.29 215.332 197.29 214.462 Q 197.29 213.591 197.612 212.834 Q 197.934 212.077 198.498 211.513 Q 199.062 210.949 199.82 210.61 Q 200.577 210.272 201.447 210.24 Q 203.187 210.24 204.057 209.386 Q 204.928 208.532 204.928 206.888 L 204.928 195.512 Q 204.928 192.741 206.056 190.582 Q 207.183 188.422 209.053 186.94 Q 210.922 185.458 213.29 184.684 Q 215.659 183.911 218.141 183.911 L 222.298 183.911 Z" style="fill: rgb(46, 217, 235); stroke-miterlimit: 7.54; stroke-width: 0px; white-space: pre;"/>
      <path d="M 307.439 214.462 Q 307.439 215.332 307.117 216.105 Q 306.795 216.879 306.231 217.443 Q 305.667 218.006 304.91 218.345 Q 304.152 218.683 303.282 218.683 Q 301.639 218.683 300.752 219.521 Q 299.866 220.359 299.866 222.067 L 299.931 233.346 Q 299.931 235.505 299.318 237.214 Q 298.706 238.922 297.675 240.243 Q 296.643 241.564 295.306 242.499 Q 293.969 243.433 292.502 244.029 Q 291.036 244.626 289.537 244.9 Q 288.039 245.173 286.718 245.173 L 282.56 245.173 L 282.496 236.698 L 286.718 236.698 Q 287.137 236.698 287.942 236.617 Q 288.748 236.537 289.537 236.198 Q 290.327 235.86 290.907 235.199 Q 291.487 234.539 291.487 233.411 L 291.487 222.003 Q 291.487 220.262 292.083 218.264 Q 292.68 216.266 293.969 214.526 Q 292.841 213.14 292.116 211.255 Q 291.391 209.37 291.391 206.888 L 291.391 195.577 L 291.391 195.512 Q 291.229 194.61 290.794 193.998 Q 290.359 193.385 289.715 192.999 Q 289.07 192.612 288.281 192.451 Q 287.491 192.29 286.653 192.29 L 282.432 192.29 L 282.432 183.911 L 286.653 183.911 Q 289.264 183.911 291.648 184.733 Q 294.033 185.554 295.854 187.085 Q 297.675 188.616 298.738 190.759 Q 299.802 192.902 299.802 195.512 Q 299.802 195.738 299.834 198.558 Q 299.866 201.378 299.866 206.888 Q 299.866 208.532 300.704 209.386 Q 301.542 210.24 303.282 210.24 Q 304.152 210.272 304.91 210.61 Q 305.667 210.949 306.231 211.513 Q 306.795 212.077 307.117 212.834 Q 307.439 213.591 307.439 214.462 Z" style="fill: rgb(46, 217, 235); stroke-miterlimit: 7.54; stroke-width: 0px; white-space: pre;"/>
    </g>
    <path d="M 341.619 154.78 L 333.659 145.925 L 325.985 154.742 L 325.985 148.344 L 331.983 141.469 C 332.44 140.948 332.999 140.688 333.659 140.688 C 333.976 140.688 334.284 140.755 334.582 140.888 C 334.881 141.021 335.138 141.202 335.354 141.431 L 341.619 148.458 L 341.619 154.78 Z" style="fill: rgb(46, 217, 235); white-space: pre;"/>
    <path d="M 375.51 154.987 L 367.55 146.132 L 359.876 154.949 L 359.876 148.551 L 365.874 141.676 C 366.331 141.155 366.89 140.895 367.55 140.895 C 367.867 140.895 368.175 140.962 368.473 141.095 C 368.772 141.228 369.029 141.409 369.245 141.638 L 375.51 148.665 L 375.51 154.987 Z" style="fill: rgb(46, 217, 235); white-space: pre;"/>
    <path d="M 362.8 158.703 L 360.222 173.14 C 360.165 173.427 360.036 173.674 359.835 173.881 C 359.634 174.089 359.391 174.222 359.104 174.279 C 358.811 174.329 358.533 174.297 358.272 174.182 C 358.011 174.068 357.805 173.889 357.654 173.645 L 352.541 165.245 L 347.417 173.645 C 347.295 173.853 347.128 174.014 346.917 174.128 C 346.706 174.243 346.479 174.3 346.235 174.3 C 345.898 174.3 345.601 174.193 345.344 173.978 C 345.086 173.764 344.928 173.484 344.871 173.14 L 342.271 158.703 L 345.107 158.703 L 346.955 168.876 L 351.359 161.85 C 351.481 161.643 351.648 161.482 351.859 161.367 C 352.07 161.253 352.298 161.195 352.541 161.195 C 352.784 161.195 353.01 161.253 353.218 161.367 C 353.425 161.482 353.597 161.643 353.733 161.85 L 358.116 168.876 L 359.964 158.703 L 362.8 158.703 Z" style="fill: rgb(46, 217, 235); white-space: pre;"/>
    <g transform="matrix(0.462152, 0, 0, 0.503456, 242.463791, 44.430473)" style="">
      <g>
        <g>
          <path d="M455.5,348H447V99.5c0-17.369-14.131-31.5-31.5-31.5h-368C30.131,68,16,82.131,16,99.5V348H7.5 c-4.142,0-7.5,3.358-7.5,7.5v16C0,384.458,10.542,395,23.5,395h416c12.958,0,23.5-10.542,23.5-23.5v-16 C463,351.358,459.642,348,455.5,348z M31,99.5C31,90.402,38.402,83,47.5,83h368c9.098,0,16.5,7.402,16.5,16.5V348H31V99.5z M448,371.5c0,4.687-3.813,8.5-8.5,8.5h-416c-4.687,0-8.5-3.813-8.5-8.5V363h169.025c-0.011,0.166-0.025,0.331-0.025,0.5 c0,4.142,3.358,7.5,7.5,7.5h80c4.142,0,7.5-3.358,7.5-7.5c0-0.169-0.014-0.334-0.025-0.5H448V371.5z" style="fill: rgb(121, 180, 115);"/>
          <path d="M407.5,100h-352c-4.142,0-7.5,3.358-7.5,7.5v216c0,4.142,3.358,7.5,7.5,7.5h352c4.142,0,7.5-3.358,7.5-7.5v-216 C415,103.358,411.642,100,407.5,100z M400,316H63V115h337V316z" style="fill: rgb(121, 180, 115);"/>
        </g>
      </g>
    </g>
  </g>
</svg>